# xmcd
#
# Track frame offsets: 
#        150
#        12426
#        25486
#        36172
#        49555
#        60565
#        74651
#        84827
#        110148
#        121134
#        141393
#        150761
#        162016
#        176888
#
# Disc length: 2556 seconds
#
# Revision: 0
# Processed by: cddbd v1.5.2PL0 Copyright (c) Steve Scherf et al.
# Submitted via: ExactAudioCopy v0.99pb5
#
DISCID=b709fa0e
DTITLE=The .357 String Band - Lightning From The North
DYEAR=2009
DGENRE=Bluegrass
TTITLE0=Lightning From The North
TTITLE1=Dust Devil
TTITLE2=Milwaukee, Here I Come
TTITLE3=Darkness In My Soul
TTITLE4=Half Tank Of Gas, Ful Tank Of Lies
TTITLE5=Oh, Adilene
TTITLE6=The Harvest Is Past
TTITLE7=Head Under My Heel
TTITLE8=Rags To Rags
TTITLE9=The Days Engrave
TTITLE10=You Better Run
TTITLE11=And All The World Turns Gray
TTITLE12=Ride Again
TTITLE13=Til Peace Or Hell
EXTD=
EXTT0=
EXTT1=
EXTT2=
EXTT3=
EXTT4=
EXTT5=
EXTT6=
EXTT7=
EXTT8=
EXTT9=
EXTT10=
EXTT11=
EXTT12=
EXTT13=
PLAYORDER=
